# xmcd
#
# Track frame offsets: 
#        150
#        12147
#        22843
#        31911
#        44723
#        53268
#        70245
#        81797
#        95790
#        108958
#        120126
#        135579
#        145916
#        157225
#
# Disc length: 2208 seconds
#
# Revision: 0
# Processed by: cddbd v1.5.2PL0 Copyright (c) Steve Scherf et al.
# Submitted via: ExactAudioCopy v0.99pb5
#
DISCID=ad089e0e
DTITLE=Various Artist - Country Stars [CD5]
DYEAR=2005
DGENRE=Country
TTITLE0=Connie Francis - Among My Souvenirs
TTITLE1=Billy Walker - Charlie's Shoes
TTITLE2=Frankie Laine - Rawhide
TTITLE3=Tommy Overstreet - Send Me No Roses
TTITLE4=Webb Pierce - Slowly
TTITLE5=Glen Campbell - Southern Nights (Live)
TTITLE6=Roy Clark - The Most Beautiful Girl (In The World)
TTITLE7=Bill Anderson - The Unicorn
TTITLE8=Hank Thomson - The Wild Side Of Life
TTITLE9=Hank Locklin - To Whom It May Concern
TTITLE10=Conway Twitty - Touch The Hand
TTITLE11=Buck Owens - Under The Influence Of Love
TTITLE12=Patsy Cline - Walking After Midnight
TTITLE13=Billie Jo Spears - You're My Man
EXTD=
EXTT0=
EXTT1=
EXTT2=
EXTT3=
EXTT4=
EXTT5=
EXTT6=
EXTT7=
EXTT8=
EXTT9=
EXTT10=
EXTT11=
EXTT12=
EXTT13=
PLAYORDER=
